HIERARCHY
ROOT Pelvis
{
	OFFSET 0.000000 0.000000 0.000000
	CHANNELS 6 Xposition Yposition Zposition Zrotation Yrotation Xrotation 
	JOINT Left_hip
	{
		OFFSET 0.068973 -0.091024 -0.007589
		CHANNELS 3 Zrotation Yrotation Xrotation
		JOINT Left_knee
		{
			OFFSET 0.036482 -0.391037 -0.003979
			CHANNELS 3 Zrotation Yrotation Xrotation
			JOINT Left_ankle
			{
				OFFSET -0.012239 -0.415469 -0.043440
				CHANNELS 3 Zrotation Yrotation Xrotation
				JOINT Left_foot
				{
					OFFSET 0.023806 -0.058558 0.118702
					CHANNELS 3 Zrotation Yrotation Xrotation
					End Site
					{
						OFFSET 0.000000 0.000000 0.000000
					}
				}
			}
		}
	}
	JOINT Right_hip
	{
		OFFSET -0.066552 -0.090468 -0.003847
		CHANNELS 3 Zrotation Yrotation Xrotation
		JOINT Right_knee
		{
			OFFSET -0.042435 -0.398340 -0.006400
			CHANNELS 3 Zrotation Yrotation Xrotation
			JOINT Right_ankle
			{
				OFFSET 0.014931 -0.415421 -0.041327
				CHANNELS 3 Zrotation Yrotation Xrotation
				JOINT Right_foot
				{
					OFFSET -0.021472 -0.049410 0.121889
					CHANNELS 3 Zrotation Yrotation Xrotation
					End Site
					{
						OFFSET 0.000000 0.000000 0.000000
					}
				}
			}
		}
	}
	JOINT Spine1
	{
		OFFSET -0.002904 0.105700 -0.022855
		CHANNELS 3 Zrotation Yrotation Xrotation
		JOINT Spine2
		{
			OFFSET 0.004179 0.132554 -0.002501
			CHANNELS 3 Zrotation Yrotation Xrotation
			JOINT Spine3
			{
				OFFSET 0.001987 0.049603 0.025988
				CHANNELS 3 Zrotation Yrotation Xrotation
				JOINT Neck
				{
					OFFSET -0.003935 0.211336 -0.045638
					CHANNELS 3 Zrotation Yrotation Xrotation
					JOINT Head
					{
						OFFSET 0.003906 0.065991 0.051018
						CHANNELS 3 Zrotation Yrotation Xrotation
						End Site
						{
							OFFSET 0.000000 0.000000 0.000000
						}
					}
				}
				JOINT Left_collar
				{
					OFFSET 0.072882 0.117751 -0.036270
					CHANNELS 3 Zrotation Yrotation Xrotation
					JOINT Left_shoulder
					{
						OFFSET 0.082118 0.032630 -0.005771
						CHANNELS 3 Zrotation Yrotation Xrotation
						JOINT Left_elbow
						{
							OFFSET 0.263305 -0.015144 -0.028095
							CHANNELS 3 Zrotation Yrotation Xrotation
							JOINT Left_wrist
							{
								OFFSET 0.250741 0.010115 -0.000759
								CHANNELS 3 Zrotation Yrotation Xrotation
								JOINT Left_palm
								{
									OFFSET 0.080683 -0.009989 -0.013613
									CHANNELS 3 Zrotation Yrotation Xrotation
									End Site
									{
										OFFSET 0.000000 0.000000 0.000000
									}
								}
							}
						}
					}
				}
				JOINT Right_collar
				{
					OFFSET -0.074811 0.116132 -0.040385
					CHANNELS 3 Zrotation Yrotation Xrotation
					JOINT Right_shoulder
					{
						OFFSET -0.085089 0.032943 -0.007484
						CHANNELS 3 Zrotation Yrotation Xrotation
						JOINT Right_elbow
						{
							OFFSET -0.254763 -0.014219 -0.020321
							CHANNELS 3 Zrotation Yrotation Xrotation
							JOINT Right_wrist
							{
								OFFSET -0.256597 0.009233 -0.005063
								CHANNELS 3 Zrotation Yrotation Xrotation
								JOINT Right_palm
								{
									OFFSET -0.080528 -0.007219 -0.010379
									CHANNELS 3 Zrotation Yrotation Xrotation
									End Site
									{
										OFFSET 0.000000 0.000000 0.000000
									}
								}
							}
						}
					}
				}
			}
		}
	}
}
MOTION
Frames: 9
Frame Time: 0.100000
0.400881 0.227474 -1.114837 174.840534 13.133757 -28.011991 4.195848 8.985220 24.506390 -1.975386 -7.081300 -6.096746 -4.268882 13.119178 -2.520594 7.147853 7.279587 -5.225234 -1.970791 -2.320076 -4.588246 -0.434996 -3.038062 25.547396 5.654641 -18.860534 -0.216524 -7.729312 7.557822 -1.024893 1.170794 -4.452318 8.342809 -0.306570 -3.001231 9.174576 -0.243116 -3.251323 2.791490 5.347178 -6.687532 19.623968 0.495235 -1.996437 15.575447 -14.234017 -7.131707 4.803003 -33.469529 -4.361804 4.487157 0.772179 -41.455578 14.125736 -6.284670 -6.946468 7.962385 -4.732938 -0.404685 -16.369817 3.702300 11.995175 -3.344336 24.111562 15.325201 4.187549 -10.721222 60.938537 2.466467 9.579718 6.713620 0.002482 1.674002 3.278446 -0.835406 
0.378824 0.227485 -1.073213 175.433135 15.175607 -25.775233 3.765846 9.586705 27.198430 -2.285334 -8.136516 -8.915700 -3.957771 11.061573 -4.778329 5.360840 6.368813 -2.602365 -2.553445 -2.103154 -7.989211 1.760322 -3.129674 6.656693 10.317007 -14.398326 1.900864 -12.503382 10.557708 2.932938 1.117792 -4.107162 6.564141 0.665887 -3.589804 9.065671 -0.140142 -3.077984 1.562089 5.141530 -4.078833 16.997463 -1.228738 -5.025919 17.562629 -15.641604 -9.776599 3.851381 -29.771484 -6.915991 5.141392 0.609578 -41.139592 13.005930 -6.916933 -6.300394 13.356828 -10.803585 -3.512937 -19.500795 9.089979 12.484497 -3.216436 22.861937 15.546771 1.704747 -26.901006 58.948438 -18.838538 6.798719 7.263382 -4.551746 9.585142 5.660217 -4.654254 
0.360081 0.222269 -1.025472 174.794406 21.332821 -25.258580 4.230675 8.698117 29.013843 -2.199119 -10.943777 -7.652018 -4.123215 9.046951 -6.279218 3.987363 5.631839 -1.984398 -3.787363 -3.646404 -4.964877 3.370821 -3.137053 -9.898108 14.763383 -13.758604 7.169629 -17.580474 12.097205 3.508696 1.437114 -3.478556 6.123371 0.640665 -4.289293 9.469148 0.168990 -3.105057 1.373362 4.052040 -5.484247 14.726972 0.229505 -6.995193 16.166552 -16.299129 -10.731747 4.179413 -31.247192 -8.836913 5.978102 1.709728 -43.898102 13.796230 -2.265275 -7.451843 14.030359 -13.613456 -5.846953 -19.123032 11.221811 12.050141 -2.160781 23.044141 11.785509 -0.969705 -28.657482 50.560366 -23.409811 -0.500104 7.055475 -0.462599 14.673980 8.003795 -7.544599 
0.348620 0.211290 -0.966517 173.967287 28.505586 -24.994342 5.020895 7.280947 29.655837 -1.361383 -15.047626 -4.324043 -5.543551 8.829298 -6.241589 4.403444 4.207633 -3.421628 -3.607677 -3.873700 -2.090282 2.422155 -1.887563 -8.131534 13.201887 -13.280447 4.260105 -16.117325 10.785089 4.399692 1.684588 -3.512742 5.647728 0.785725 -4.062203 9.904052 0.314577 -3.031327 1.433300 3.675015 -7.812995 13.569117 1.056288 -9.037307 13.944065 -17.153431 -9.111301 5.098863 -33.766293 -7.592910 9.144232 -1.494132 -47.106949 20.498230 0.267683 -7.598567 10.968389 -13.360135 -5.695866 -18.483308 12.732286 11.375318 -0.863720 22.856713 8.466190 -3.234849 -21.046723 37.020688 -21.358175 -4.952924 4.663445 -0.508781 15.136012 8.017940 -8.886636 
0.338441 0.194266 -0.902627 172.464421 33.376961 -23.982696 6.367202 5.487676 27.422139 -0.848313 -16.693850 1.388179 -7.091463 9.330027 -3.634421 5.786250 2.715314 -6.225743 -4.367701 -5.514379 -0.727447 4.005727 -3.895522 -6.734154 11.691297 -14.568395 6.808768 -14.782855 8.243703 4.235567 4.003461 -3.142038 4.896845 0.978973 -2.781530 8.956005 0.511132 -2.192950 1.308263 2.391112 -10.771408 12.754879 1.438682 -9.357821 12.293577 -18.444330 -5.270958 5.702626 -38.321743 -4.728755 11.242903 -4.809777 -42.348468 27.532731 -3.356247 -6.454045 11.094699 -11.993058 -5.372115 -18.268520 13.656048 9.980097 0.897171 23.121270 6.262147 -3.841225 -11.593578 24.369411 -12.595349 -1.970359 2.126247 5.534442 13.326943 7.324352 -8.787908 
0.331546 0.177300 -0.842133 171.544714 34.316186 -25.358177 7.763735 4.145982 23.864108 -2.557660 -15.624521 14.620055 -8.397567 10.865099 1.114521 6.280769 1.323518 -9.293158 -3.179302 -6.938706 4.551442 5.600415 -2.363894 -7.368818 7.998339 -10.581434 7.581151 -10.108046 3.146085 3.789788 6.844778 -1.619388 6.178643 1.121649 -1.624336 9.706431 1.192485 -0.522623 1.694652 -0.128000 -13.168624 14.232622 2.643003 -7.840983 8.438995 -19.258236 -1.992982 5.818144 -44.891730 0.309484 10.174668 -1.006151 -32.418145 24.572899 -3.440732 -4.645682 9.226971 -10.052928 -4.305429 -16.367059 13.382207 10.911002 3.427849 26.017749 6.579045 -2.514404 -4.312634 16.343571 1.432744 0.076333 0.560070 13.111311 10.659366 6.438554 -7.435712 
0.327880 0.162834 -0.796238 171.424879 36.144486 -30.134711 9.158241 4.659160 17.939381 -4.375824 -9.435016 34.775609 -9.653844 12.939250 7.439714 6.892311 2.728948 -12.403924 -3.330069 -8.334994 14.327400 5.536882 -0.306172 -8.493295 3.610804 -8.565136 6.461454 -6.188358 -1.032830 0.740821 8.309203 0.243704 10.627864 0.773132 -2.157974 13.712198 1.999515 0.589921 2.762241 -3.701994 -15.828618 16.610454 5.788936 -5.688746 0.648164 -19.421697 -3.129951 7.729566 -50.819892 3.949076 6.753950 1.341560 -24.013292 16.714742 0.568496 -1.826001 1.609187 -8.377133 -3.692664 -13.414238 12.082193 14.328403 6.088585 31.788162 6.359967 -0.379548 -1.366819 21.191911 9.427541 -2.793967 0.670138 15.408646 9.370378 6.683692 -7.209506 
0.323965 0.149774 -0.754309 173.343026 37.292495 -29.594764 9.406725 6.225234 9.723467 -4.273902 -1.106710 44.418027 -6.258588 13.736142 2.381224 5.233615 4.584873 -10.429144 -4.367810 -9.555038 18.315915 5.127442 0.049429 -9.274457 3.142234 -7.121973 6.090405 -4.541873 -2.494655 -0.501467 7.250614 2.837848 12.208494 0.029929 -1.520793 13.820282 1.330682 1.753546 2.781179 -3.957064 -15.198550 17.778762 5.440505 -5.574284 0.215553 -20.060974 -2.870878 9.076559 -50.537711 7.996403 7.892771 -4.244707 -23.236472 25.087617 -3.476643 -1.563366 5.236936 -8.374598 -3.327401 -15.633379 13.014114 16.081582 7.796729 35.309765 8.106149 4.049214 6.849722 26.342172 20.137736 0.442223 1.014752 12.810453 9.554183 7.039815 -8.163909 
0.311358 0.141013 -0.714575 174.721145 38.913329 -27.265901 6.439381 4.510640 5.013660 -5.912593 -0.661804 34.132045 -3.458137 11.224865 -2.041108 3.886751 7.054612 -8.405854 -5.034483 -9.479452 19.993646 5.029086 -0.469014 -9.801211 4.168632 -7.285277 4.215544 -4.645980 -2.100940 -0.922041 6.639900 4.838141 11.902915 -0.993572 -0.140915 11.432807 0.231651 2.882371 2.516421 -3.219215 -13.527519 16.359221 3.264841 -7.248127 1.799834 -20.893870 0.554254 7.578273 -50.556931 9.489794 8.010692 -6.147410 -25.371572 30.467906 -10.638527 -3.071821 10.246281 -6.847436 -2.438566 -15.530162 13.763809 13.979283 7.474759 38.578668 7.787046 9.856182 14.141213 38.811764 36.356341 5.437849 3.711994 16.828562 8.072233 6.929840 -6.570211 
